# xmcd
#
# Track frame offsets:
# 150
# 14918
# 32951
# 52323
# 67996
# 82898
# 97786
# 114968
# 129886
# 144526
# 162736
# 180823
# 199466
# 216716
#
# Disc length: 3110 seconds
#
#
# Revision: 0
# Processed by: cddbd v1.5.2PL0 Copyright (c) Steve Scherf et al.
# Submitted via: FreeRIP 2.96 
#
DISCID=cb0c240e
DTITLE=Leandro and Leonardo - Warner 30 Anos
DYEAR=2006
DGENRE=Sertanejo
TTITLE0=Mexe-mexe
TTITLE1=Festa de Rodeio
TTITLE2=Talismã
TTITLE3=Cerveja
TTITLE4=Entre Tapas e Beijos
TTITLE5=Pense em Mim
TTITLE6=India
TTITLE7=Luar do Sertão
TTITLE8=Não Olhe Assim
TTITLE9=Temporal de Amor
TTITLE10=Sonho por Sonho
TTITLE11=Desculpe, Mas Eu Vou Chorar
TTITLE12=É Por Você Que Canto (The Sounds of Silence)
TTITLE13=Noite Feliz
EXTD=
EXTT0=
EXTT1=
EXTT2=
EXTT3=
EXTT4=
EXTT5=
EXTT6=
EXTT7=
EXTT8=
EXTT9=
EXTT10=
EXTT11=
EXTT12=
EXTT13=
PLAYORDER=
